# xmcd
#
# Track frame offsets:
#	150
#	19850
#	34262
#	51852
#	71862
#	91105
#	105155
#	121500
#	140567
#	155415
#
# Disc length: 2381 seconds
#
# Revision: 1
# Processed by: cddbd v1.5PL3 Copyright (c) Steve Scherf et al.
# Submitted via: CDex 1.50Beta5
#
DISCID=7a094b0a
DTITLE=山下久美子 - アニマ・アニムス
DYEAR=1989
DGENRE=Pop
TTITLE0=アニマ・アニムス
TTITLE1=そばにいたいよ
TTITLE2=SEEK
TTITLE3=DOWNTOWN SUNDOWN
TTITLE4=NEW YEAR’S EVE
TTITLE5=モーニング・ベルならしてよ
TTITLE6=GIMME LOVE
TTITLE7=誰かがわたしを呼んでいる
TTITLE8=5・6・7・8 DANCE!
TTITLE9=HELLO!ストレンジャー
EXTD=
EXTT0=
EXTT1=
EXTT2=
EXTT3=
EXTT4=
EXTT5=
EXTT6=
EXTT7=
EXTT8=
EXTT9=
PLAYORDER=
